# xmcd
#
# Track frame offsets:
#	150
#	42064
#	91475
#	161127
#	217257
#	295113
#
# Disc length: 4351 seconds
#
# Revision: 0
# Processed by: cddbd v1.5.1PL2 Copyright (c) Steve Scherf et al.
# Submitted via: dBpowerAMP V4.0
#
DISCID=5510fd06
DTITLE=Eva Dahlgren - Lars and Urban - Faster Los hemlighet - CD-BOK 01/04
DYEAR=2003
DGENRE=CD-BOK
TTITLE0=01.01
TTITLE1=01.02
TTITLE2=01.03
TTITLE3=01.04
TTITLE4=01.05
TTITLE5=DATA
EXTD=
EXTT0=
EXTT1=
EXTT2=
EXTT3=
EXTT4=
EXTT5=
PLAYORDER=
